<svg width="226" height="96" viewBox="0 0 226 96" fill="none" xmlns="http://www.w3.org/2000/svg">
<path d="M12.805 59.65C9.33833 59.65 6.695 58.675 4.875 56.725C3.055 54.7317 2.145 51.8933 2.145 48.21V24.29C2.145 20.6067 3.055 17.79 4.875 15.84C6.695 13.8467 9.33833 12.85 12.805 12.85C16.2717 12.85 18.915 13.8467 20.735 15.84C22.555 17.79 23.465 20.6067 23.465 24.29V28.19H16.705V23.835C16.705 20.845 15.47 19.35 13 19.35C10.53 19.35 9.295 20.845 9.295 23.835V48.73C9.295 51.6767 10.53 53.15 13 53.15C15.47 53.15 16.705 51.6767 16.705 48.73V39.825H13.13V33.325H23.465V48.21C23.465 51.8933 22.555 54.7317 20.735 56.725C18.915 58.675 16.2717 59.65 12.805 59.65ZM38.4556 59.65C34.989 59.65 32.3456 58.675 30.5256 56.725C28.7056 54.7317 27.7956 51.8933 27.7956 48.21V13.5H34.9456V48.73C34.9456 50.29 35.249 51.4167 35.8556 52.11C36.5056 52.8033 37.4156 53.15 38.5856 53.15C39.7556 53.15 40.644 52.8033 41.2506 52.11C41.9006 51.4167 42.2256 50.29 42.2256 48.73V13.5H49.1156V48.21C49.1156 51.8933 48.2056 54.7317 46.3856 56.725C44.5656 58.675 41.9223 59.65 38.4556 59.65ZM53.168 33H67.468V39.5H53.168V33ZM71.7275 13.5H78.8775V59H71.7275V13.5ZM84.2324 13.5H93.2024L100.157 40.735H100.287V13.5H106.657V59H99.3124L90.7324 25.785H90.6024V59H84.2324V13.5ZM111.972 13.5H122.892C126.445 13.5 129.11 14.4533 130.887 16.36C132.663 18.2667 133.552 21.0617 133.552 24.745V47.755C133.552 51.4383 132.663 54.2333 130.887 56.14C129.11 58.0467 126.445 59 122.892 59H111.972V13.5ZM122.762 52.5C123.932 52.5 124.82 52.1533 125.427 51.46C126.077 50.7667 126.402 49.64 126.402 48.08V24.42C126.402 22.86 126.077 21.7333 125.427 21.04C124.82 20.3467 123.932 20 122.762 20H119.122V52.5H122.762ZM148.713 59.65C145.203 59.65 142.516 58.6533 140.653 56.66C138.79 54.6667 137.858 51.85 137.858 48.21V24.29C137.858 20.65 138.79 17.8333 140.653 15.84C142.516 13.8467 145.203 12.85 148.713 12.85C152.223 12.85 154.91 13.8467 156.773 15.84C158.636 17.8333 159.568 20.65 159.568 24.29V48.21C159.568 51.85 158.636 54.6667 156.773 56.66C154.91 58.6533 152.223 59.65 148.713 59.65ZM148.713 53.15C151.183 53.15 152.418 51.655 152.418 48.665V23.835C152.418 20.845 151.183 19.35 148.713 19.35C146.243 19.35 145.008 20.845 145.008 23.835V48.665C145.008 51.655 146.243 53.15 148.713 53.15Z" fill="black"/>
<path d="M6.925 89.25C5.59167 89.25 4.575 88.875 3.875 88.125C3.175 87.3583 2.825 86.2667 2.825 84.85V75.65C2.825 74.2333 3.175 73.15 3.875 72.4C4.575 71.6333 5.59167 71.25 6.925 71.25C8.25833 71.25 9.275 71.6333 9.975 72.4C10.675 73.15 11.025 74.2333 11.025 75.65V77.15H8.425V75.475C8.425 74.325 7.95 73.75 7 73.75C6.05 73.75 5.575 74.325 5.575 75.475V85.05C5.575 86.1833 6.05 86.75 7 86.75C7.95 86.75 8.425 86.1833 8.425 85.05V81.625H7.05V79.125H11.025V84.85C11.025 86.2667 10.675 87.3583 9.975 88.125C9.275 88.875 8.25833 89.25 6.925 89.25ZM16.7656 89.25C15.4156 89.25 14.3823 88.8667 13.6656 88.1C12.949 87.3333 12.5906 86.25 12.5906 84.85V75.65C12.5906 74.25 12.949 73.1667 13.6656 72.4C14.3823 71.6333 15.4156 71.25 16.7656 71.25C18.1156 71.25 19.149 71.6333 19.8656 72.4C20.5823 73.1667 20.9406 74.25 20.9406 75.65V84.85C20.9406 86.25 20.5823 87.3333 19.8656 88.1C19.149 88.8667 18.1156 89.25 16.7656 89.25ZM16.7656 86.75C17.7156 86.75 18.1906 86.175 18.1906 85.025V75.475C18.1906 74.325 17.7156 73.75 16.7656 73.75C15.8156 73.75 15.3406 74.325 15.3406 75.475V85.025C15.3406 86.175 15.8156 86.75 16.7656 86.75ZM22.8004 71.5H27.0004C28.3671 71.5 29.3921 71.8667 30.0754 72.6C30.7587 73.3333 31.1004 74.4083 31.1004 75.825V84.675C31.1004 86.0917 30.7587 87.1667 30.0754 87.9C29.3921 88.6333 28.3671 89 27.0004 89H22.8004V71.5ZM26.9504 86.5C27.4004 86.5 27.7421 86.3667 27.9754 86.1C28.2254 85.8333 28.3504 85.4 28.3504 84.8V75.7C28.3504 75.1 28.2254 74.6667 27.9754 74.4C27.7421 74.1333 27.4004 74 26.9504 74H25.5504V86.5H26.9504ZM36.5316 89.25C35.1983 89.25 34.19 88.875 33.5066 88.125C32.8233 87.3583 32.4816 86.2667 32.4816 84.85V83.85H35.0816V85.05C35.0816 86.1833 35.5566 86.75 36.5066 86.75C36.9733 86.75 37.3233 86.6167 37.5566 86.35C37.8066 86.0667 37.9316 85.6167 37.9316 85C37.9316 84.2667 37.765 83.625 37.4316 83.075C37.0983 82.5083 36.4816 81.8333 35.5816 81.05C34.4483 80.05 33.6566 79.15 33.2066 78.35C32.7566 77.5333 32.5316 76.6167 32.5316 75.6C32.5316 74.2167 32.8816 73.15 33.5816 72.4C34.2816 71.6333 35.2983 71.25 36.6316 71.25C37.9483 71.25 38.94 71.6333 39.6066 72.4C40.29 73.15 40.6316 74.2333 40.6316 75.65V76.375H38.0316V75.475C38.0316 74.875 37.915 74.4417 37.6816 74.175C37.4483 73.8917 37.1066 73.75 36.6566 73.75C35.74 73.75 35.2816 74.3083 35.2816 75.425C35.2816 76.0583 35.4483 76.65 35.7816 77.2C36.1316 77.75 36.7566 78.4167 37.6566 79.2C38.8066 80.2 39.5983 81.1083 40.0316 81.925C40.465 82.7417 40.6816 83.7 40.6816 84.8C40.6816 86.2333 40.3233 87.3333 39.6066 88.1C38.9066 88.8667 37.8816 89.25 36.5316 89.25ZM50.2623 89.25C48.929 89.25 47.9123 88.875 47.2123 88.125C46.5123 87.3583 46.1623 86.2667 46.1623 84.85V71.5H48.9123V85.05C48.9123 85.65 49.029 86.0833 49.2623 86.35C49.5123 86.6167 49.8623 86.75 50.3123 86.75C50.7623 86.75 51.104 86.6167 51.3373 86.35C51.5873 86.0833 51.7123 85.65 51.7123 85.05V71.5H54.3623V84.85C54.3623 86.2667 54.0123 87.3583 53.3123 88.125C52.6123 88.875 51.5956 89.25 50.2623 89.25ZM56.3209 71.5H59.7709L62.4459 81.975H62.4959V71.5H64.9459V89H62.1209L58.8209 76.225H58.7709V89H56.3209V71.5ZM70.8648 89.25C69.5482 89.25 68.5398 88.875 67.8398 88.125C67.1565 87.375 66.8148 86.3167 66.8148 84.95V75.55C66.8148 74.1833 67.1565 73.125 67.8398 72.375C68.5398 71.625 69.5482 71.25 70.8648 71.25C72.1815 71.25 73.1815 71.625 73.8648 72.375C74.5648 73.125 74.9148 74.1833 74.9148 75.55V77.4H72.3148V75.375C72.3148 74.2917 71.8565 73.75 70.9398 73.75C70.0232 73.75 69.5648 74.2917 69.5648 75.375V85.15C69.5648 86.2167 70.0232 86.75 70.9398 86.75C71.8565 86.75 72.3148 86.2167 72.3148 85.15V82.475H74.9148V84.95C74.9148 86.3167 74.5648 87.375 73.8648 88.125C73.1815 88.875 72.1815 89.25 70.8648 89.25ZM76.5602 71.5H79.3102V78.625H82.2602V71.5H85.0102V89H82.2602V81.125H79.3102V89H76.5602V71.5ZM89.1832 71.5H92.9082L95.7582 89H93.0082L92.5082 85.525V85.575H89.3832L88.8832 89H86.3332L89.1832 71.5ZM92.1832 83.2L90.9582 74.55H90.9082L89.7082 83.2H92.1832ZM97.0924 71.5H99.8424V89H97.0924V71.5ZM101.902 71.5H105.352L108.027 81.975H108.077V71.5H110.527V89H107.702L104.402 76.225H104.352V89H101.902V71.5ZM112.571 71.5H120.071V74H115.321V78.625H119.096V81.125H115.321V86.5H120.071V89H112.571V71.5ZM121.653 71.5H125.853C127.22 71.5 128.245 71.8667 128.928 72.6C129.611 73.3333 129.953 74.4083 129.953 75.825V84.675C129.953 86.0917 129.611 87.1667 128.928 87.9C128.245 88.6333 127.22 89 125.853 89H121.653V71.5ZM125.803 86.5C126.253 86.5 126.595 86.3667 126.828 86.1C127.078 85.8333 127.203 85.4 127.203 84.8V75.7C127.203 75.1 127.078 74.6667 126.828 74.4C126.595 74.1333 126.253 74 125.803 74H124.403V86.5H125.803ZM135.813 71.5H138.563V89H135.813V71.5ZM140.623 71.5H144.073L146.748 81.975H146.798V71.5H149.248V89H146.423L143.123 76.225H143.073V89H140.623V71.5ZM151.292 71.5H155.492C156.858 71.5 157.883 71.8667 158.567 72.6C159.25 73.3333 159.592 74.4083 159.592 75.825V84.675C159.592 86.0917 159.25 87.1667 158.567 87.9C157.883 88.6333 156.858 89 155.492 89H151.292V71.5ZM155.442 86.5C155.892 86.5 156.233 86.3667 156.467 86.1C156.717 85.8333 156.842 85.4 156.842 84.8V75.7C156.842 75.1 156.717 74.6667 156.467 74.4C156.233 74.1333 155.892 74 155.442 74H154.042V86.5H155.442ZM165.423 89.25C164.073 89.25 163.04 88.8667 162.323 88.1C161.606 87.3333 161.248 86.25 161.248 84.85V75.65C161.248 74.25 161.606 73.1667 162.323 72.4C163.04 71.6333 164.073 71.25 165.423 71.25C166.773 71.25 167.806 71.6333 168.523 72.4C169.24 73.1667 169.598 74.25 169.598 75.65V84.85C169.598 86.25 169.24 87.3333 168.523 88.1C167.806 88.8667 166.773 89.25 165.423 89.25ZM165.423 86.75C166.373 86.75 166.848 86.175 166.848 85.025V75.475C166.848 74.325 166.373 73.75 165.423 73.75C164.473 73.75 163.998 74.325 163.998 75.475V85.025C163.998 86.175 164.473 86.75 165.423 86.75ZM171.458 71.5H174.908L177.583 81.975H177.633V71.5H180.083V89H177.258L173.958 76.225H173.908V89H171.458V71.5ZM182.127 71.5H189.627V74H184.877V78.625H188.652V81.125H184.877V86.5H189.627V89H182.127V71.5ZM194.832 89.25C193.499 89.25 192.491 88.875 191.807 88.125C191.124 87.3583 190.782 86.2667 190.782 84.85V83.85H193.382V85.05C193.382 86.1833 193.857 86.75 194.807 86.75C195.274 86.75 195.624 86.6167 195.857 86.35C196.107 86.0667 196.232 85.6167 196.232 85C196.232 84.2667 196.066 83.625 195.732 83.075C195.399 82.5083 194.782 81.8333 193.882 81.05C192.749 80.05 191.957 79.15 191.507 78.35C191.057 77.5333 190.832 76.6167 190.832 75.6C190.832 74.2167 191.182 73.15 191.882 72.4C192.582 71.6333 193.599 71.25 194.932 71.25C196.249 71.25 197.241 71.6333 197.907 72.4C198.591 73.15 198.932 74.2333 198.932 75.65V76.375H196.332V75.475C196.332 74.875 196.216 74.4417 195.982 74.175C195.749 73.8917 195.407 73.75 194.957 73.75C194.041 73.75 193.582 74.3083 193.582 75.425C193.582 76.0583 193.749 76.65 194.082 77.2C194.432 77.75 195.057 78.4167 195.957 79.2C197.107 80.2 197.899 81.1083 198.332 81.925C198.766 82.7417 198.982 83.7 198.982 84.8C198.982 86.2333 198.624 87.3333 197.907 88.1C197.207 88.8667 196.182 89.25 194.832 89.25ZM200.559 71.5H203.309V89H200.559V71.5ZM207.494 71.5H211.219L214.069 89H211.319L210.819 85.525V85.575H207.694L207.194 89H204.644L207.494 71.5ZM210.494 83.2L209.269 74.55H209.219L208.019 83.2H210.494Z" fill="black"/>
</svg>
